<svg xmlns="http://www.w3.org/2000/svg" width="557" height="204" fill="none">
	<path d="M321.228 42.454v91.686h-24.776v-10.567c-6.424 7.956-15.741 11.928-27.938 11.928-8.423 0-16.072-1.937-22.95-5.799-6.767-3.861-12.087-9.378-15.961-16.525-3.874-7.159-5.823-15.447-5.823-24.886 0-9.427 1.937-17.727 5.823-24.886 3.874-7.16 9.206-12.664 15.961-16.526 6.878-3.861 14.527-5.798 22.95-5.798 11.413 0 20.338 3.69 26.774 11.082v-9.71h25.94Zm-48.215 71.238c6.546 0 11.977-2.268 16.292-6.816 4.328-4.659 6.485-10.85 6.485-18.573 0-7.723-2.157-13.865-6.485-18.401-4.327-4.659-9.758-6.988-16.292-6.988-6.645 0-12.137 2.33-16.464 6.988-4.328 4.548-6.486 10.678-6.486 18.401 0 7.723 2.158 13.914 6.486 18.573 4.327 4.548 9.807 6.816 16.464 6.816ZM345.243 42.454h25.941v91.686h-25.941V42.454Zm12.97-12.787c-4.768 0-8.642-1.422-11.634-4.266-2.991-2.844-4.486-6.362-4.486-10.567s1.495-7.724 4.486-10.568C349.571 1.422 353.457 0 358.213 0c4.757 0 8.643 1.36 11.634 4.095 2.992 2.721 4.487 6.13 4.487 10.224 0 4.425-1.495 8.128-4.487 11.082-2.979 2.844-6.865 4.266-11.634 4.266ZM449.141 129.69c-2.55 1.937-5.713 3.408-9.477 4.426-3.653.907-7.478 1.36-11.474 1.36-10.752 0-19.014-2.782-24.776-8.348-5.762-5.566-8.643-13.743-8.643-24.543V22.152h25.941v22.324h22.115v20.449h-22.115v37.317c0 3.861.944 6.877 2.819 9.035 1.888 2.047 4.597 3.065 8.153 3.065 3.996 0 7.539-1.141 10.641-3.409l6.816 18.757ZM553.92 42.441v91.687h-24.604v-10.911c-3.433 3.972-7.54 7.049-12.309 9.207-4.768 2.047-9.917 3.065-15.471 3.065-11.744 0-21.061-3.47-27.939-10.396-6.877-6.927-10.309-17.212-10.309-30.844V42.44h25.94v47.885c0 14.772 6.044 22.152 18.119 22.152 6.203 0 11.193-2.047 14.969-6.129 3.775-4.205 5.651-10.396 5.651-18.573V42.441h25.953Z" fill="#242424" />
	<path fill-rule="evenodd" clip-rule="evenodd" d="M87.948 27.816C39.377 27.816 0 67.205 0 115.801v87.984h32.977v-87.984c0-30.367 24.605-54.995 54.97-54.995 30.354 0 54.971 24.616 54.971 54.995 0 30.366-24.604 54.994-54.97 54.994H65.955v32.99h21.993c48.571 0 87.947-39.389 87.947-87.984 0-48.596-39.376-87.985-87.948-87.985Z" fill="url(#a)" />
	<path d="M243.187 181.522h-5.786v11.781h-5.051v-27.865h5.051v11.781h5.884l9.048-11.781h5.418l-10.567 13.412 11.303 14.466h-5.946l-9.354-11.794ZM259.908 179.377c0-8.312 6.154-14.197 14.515-14.197s14.466 5.885 14.466 14.197c0 8.311-6.105 14.245-14.466 14.245-8.361 0-14.515-5.946-14.515-14.245Zm23.881 0c0-5.946-3.996-9.783-9.354-9.783-5.357 0-9.415 3.837-9.415 9.783 0 5.945 4.046 9.832 9.415 9.832 5.37 0 9.354-3.899 9.354-9.832ZM335.523 165.438v27.865h-39.695v-27.865h5.05v23.452h12.309v-23.452h5.05v23.452h12.247v-23.452h5.039ZM370.021 181.056h-22.606c.625 4.892 4.573 8.153 10.101 8.153 3.261 0 5.995-1.104 8.042-3.372l2.783 3.261c-2.525 2.942-6.362 4.524-10.984 4.524-8.986 0-14.981-5.946-14.981-14.245 0-8.251 5.946-14.197 13.988-14.197s13.779 5.787 13.779 14.356a38.645 38.645 0 0 1-.122 1.52Zm-22.618-3.629h17.874c-.528-4.683-4.046-7.993-8.937-7.993-4.831 0-8.41 3.261-8.937 7.993ZM401.036 165.438v27.865h-5.05v-23.452h-11.99l-.319 6.203c-.478 9.832-1.789 17.666-8.103 17.666-.944 0-1.949-.159-3.101-.478l.318-4.254c.478.11.895.159 1.263.159 4.524 0 4.732-6.84 5.1-13.411l.478-10.31h21.404v.012ZM435.534 181.056h-22.606c.625 4.892 4.572 8.153 10.101 8.153 3.261 0 5.995-1.104 8.042-3.372l2.783 3.261c-2.525 2.942-6.362 4.524-10.984 4.524-8.986 0-14.981-5.946-14.981-14.245 0-8.251 5.946-14.197 13.988-14.197s13.779 5.787 13.779 14.356a38.645 38.645 0 0 1-.122 1.52Zm-22.619-3.629h17.874c-.527-4.683-4.045-7.993-8.937-7.993-4.83 0-8.41 3.261-8.937 7.993ZM453.936 181.522h-5.787v11.781h-5.05v-27.865h5.05v11.781h5.885l9.047-11.781h5.419l-10.568 13.412 11.303 14.466h-5.946l-9.353-11.794ZM511.455 188.731v4.572H485v-3.579l14.981-14.454c3.886-3.788 4.622-6.105 4.622-8.41 0-3.788-2.685-6.105-7.834-6.105-3.947 0-7.147 1.263-9.415 3.997l-3.58-3.102c2.844-3.518 7.736-5.578 13.461-5.578 7.674 0 12.615 3.947 12.615 10.249 0 3.579-1.055 6.779-6.044 11.572l-11.254 10.838h18.903ZM515.82 189.993c0-2.108 1.63-3.579 3.58-3.579 1.888 0 3.469 1.471 3.469 3.579 0 2.109-1.581 3.629-3.469 3.629-1.95 0-3.58-1.52-3.58-3.629ZM526.853 174.902c0-11.989 6.412-18.83 15.042-18.83 8.57 0 14.981 6.841 14.981 18.83 0 11.99-6.411 18.83-14.981 18.83-8.618 0-15.042-6.84-15.042-18.83Zm24.776 0c0-9.415-3.996-14.147-9.734-14.147-5.786 0-9.782 4.732-9.782 14.147s3.996 14.147 9.782 14.147c5.738 0 9.734-4.732 9.734-14.147Z" fill="#242424" />
	<defs>
		<linearGradient id="a" x1="24.323" y1="-6.123" x2="128.842" y2="252.308" gradientUnits="userSpaceOnUse">
			<stop stop-color="#00A3FF" />
			<stop offset="1" stop-color="#2F0DFF" />
		</linearGradient>
	</defs>
</svg>
