<svg xmlns="http://www.w3.org/2000/svg" width="183" height="55" viewBox="0 0 183 55" fill="none">
	<path fill-rule="evenodd" clip-rule="evenodd" d="M117.009 7.28761C117.131 4.76523 115.185 2.62156 112.661 2.49958C110.138 2.3776 107.994 4.32351 107.872 6.84589C107.75 9.36827 109.697 11.512 112.22 11.6339C114.742 11.7559 116.886 9.80999 117.009 7.28761ZM115.968 15.512H108.932V45.5273H115.968V15.512ZM140.808 34.6784V33.4521H147.844V34.6784C147.844 41.2889 142.459 46.4665 135.584 46.4665C128.71 46.4665 123.324 41.2889 123.324 34.6784V5.31264H130.361V15.6305H145.876V22.1963H130.361V34.6784C130.361 37.4338 132.558 39.4317 135.584 39.4317C138.61 39.4317 140.808 37.4338 140.808 34.6784ZM152.794 31.5843C152.794 40.6242 158.636 46.4654 167.679 46.4654C175.885 46.4654 182.563 39.7893 182.563 31.5843V15.512H175.526V31.5843C175.526 35.9108 172.006 39.4306 167.679 39.4306C161.191 39.4306 159.831 35.1628 159.831 31.5843V15.512H152.794V31.5843ZM85.6192 14.912C76.8776 14.912 69.7637 21.0488 69.7637 30.7639C69.7637 40.7463 76.7274 46.3742 84.9155 46.1467C89.8364 46.0107 93.1998 43.6236 95.2005 40.0053L95.2122 40.0171V45.645H101.472V30.7639C101.472 21.5177 95.0222 14.912 85.6192 14.912ZM85.6192 39.6371C80.6913 39.6371 76.6806 36.1948 76.6806 30.6161C76.6806 25.068 80.6889 21.5951 85.6192 21.5951C90.547 21.5951 94.5578 25.6425 94.5578 30.6161C94.5555 35.5898 90.547 39.6371 85.6192 39.6371Z" fill="#3762EB" />
	<path fill-rule="evenodd" clip-rule="evenodd" d="M27.5062 55C32.9289 55 42.0976 55 55.0125 55C55.0125 41.3705 55.0125 32.2039 55.0125 27.5C55.0125 12.3122 42.6975 0 27.5062 0C12.315 0 0 12.3122 0 27.5C0 42.6878 12.315 55 27.5062 55Z" fill="url(#paint0_linear)" />
	<path d="M27.5062 55C42.6975 55 55.0125 42.6878 55.0125 27.5C55.0125 12.3122 42.6975 0 27.5062 0C12.315 0 0 12.3122 0 27.5C0 42.6878 12.315 55 27.5062 55Z" fill="url(#paint1_linear)" />
	<path d="M27.5063 55C42.6976 55 55.0126 42.6878 55.0126 27.5C55.0126 12.3122 42.6976 0 27.5063 0V55Z" fill="white" fill-opacity="0.2" />
	<path opacity="0.2" fill-rule="evenodd" clip-rule="evenodd" d="M27.5061 13.75C19.9104 13.75 13.7529 19.9061 13.7529 27.5C13.7529 35.0939 19.9104 41.25 27.5061 41.25V13.75Z" fill="white" />
	<path opacity="0.193192" fill-rule="evenodd" clip-rule="evenodd" d="M27.5063 13.75C35.102 13.75 41.2595 19.9061 41.2595 27.5C41.2595 35.0939 35.102 41.25 27.5063 41.25V13.75Z" fill="white" />
	<path opacity="0.2" fill-rule="evenodd" clip-rule="evenodd" d="M27.5063 13.75C35.102 13.75 41.2595 19.9061 41.2595 27.5C41.2595 35.0939 35.102 41.25 27.5063 41.25V13.75Z" fill="white" />
	<defs>
		<linearGradient id="paint0_linear" x1="55.2131" y1="-0.199895" x2="11.0944" y2="51.1827" gradientUnits="userSpaceOnUse">
			<stop stop-color="#4DA5FF" />
			<stop offset="1" stop-color="#1F1BD5" />
		</linearGradient>
		<linearGradient id="paint1_linear" x1="55.2131" y1="-0.199895" x2="11.0944" y2="51.1827" gradientUnits="userSpaceOnUse">
			<stop stop-color="#4DA5FF" />
			<stop offset="1" stop-color="#1F1BD5" />
		</linearGradient>
	</defs>
</svg>
