<svg xmlns="http://www.w3.org/2000/svg" width="222" height="70" viewBox="0 0 222 70" fill="none">
	<path fill-rule="evenodd" clip-rule="evenodd" d="M152.204 7.54342C152.204 3.51262 155.465 0.245554 159.531 0.245554H167.281V5.67652H159.531C158.472 5.67652 157.625 6.52511 157.625 7.54342V15.308H152.204V7.54342ZM206.923 0.203125H214.673C218.697 0.203125 222 3.47019 222 7.50099V15.2656H216.579V7.54342C216.579 6.48268 215.732 5.67652 214.673 5.67652H206.923V0.203125ZM152.204 54.9371H157.625V62.7017C157.625 63.7624 158.472 64.5686 159.531 64.5686H167.281V69.9995H159.531C155.507 69.9995 152.204 66.7325 152.204 62.7017V54.9371ZM216.579 54.9371H222V62.7017C222 66.7325 218.739 69.9995 214.673 69.9995H206.923V64.5686H214.673C215.732 64.5686 216.579 63.72 216.579 62.7017V54.9371Z" fill="#0075EB" />
	<path d="M5.62558 46.4747C5.96141 46.5177 6.38119 46.5177 6.92691 46.5606C7.47263 46.5606 8.18626 46.5606 9.10978 46.5606C12.8459 46.5606 15.6584 45.6157 17.4635 43.683C19.3105 41.7072 20.234 39.0014 20.234 35.4795C20.234 31.9146 19.3525 29.2087 17.5474 27.276C15.7004 25.4291 12.9298 24.4842 9.15176 24.4842C7.51461 24.4842 6.29724 24.5272 5.62558 24.6131V46.4747ZM26.069 35.4795C26.069 38.1853 25.6492 40.5476 24.8097 42.5663C23.9701 44.542 22.7947 46.217 21.2835 47.5914C19.7723 48.9229 17.9672 49.9107 15.7843 50.555C13.6434 51.1993 11.2927 51.4999 8.69 51.4999C7.43065 51.4999 6.04537 51.457 4.49217 51.3281C2.93897 51.2422 1.42775 51.0275 0.000488281 50.6839V20.318C1.42775 19.9744 2.93897 19.7597 4.53415 19.6738C6.12932 19.5879 7.55659 19.5449 8.77396 19.5449C11.3346 19.5449 13.6854 19.8456 15.8263 20.4898C17.9672 21.0911 19.7723 22.079 21.2835 23.3675C22.8367 24.656 24.0121 26.3311 24.8097 28.3497C25.6492 30.3254 26.069 32.7306 26.069 35.4795Z" fill="#29323C" />
	<path d="M37.3156 50.6583H32.554V27.2273H37.3531V50.6583H37.3156ZM37.8405 20.3809C37.8405 21.4015 37.5406 22.2095 36.9782 22.8048C36.4158 23.4001 35.7034 23.6978 34.9161 23.6978C34.0912 23.6978 33.4163 23.4001 32.8164 22.8048C32.254 22.2095 31.9541 21.4015 31.9541 20.3809C31.9541 19.3178 32.254 18.5098 32.8164 17.9145C33.3788 17.3192 34.0912 17.0215 34.9161 17.0215C35.7034 17.0215 36.3783 17.3192 36.9782 17.9145C37.5781 18.5098 37.8405 19.3178 37.8405 20.3809Z" fill="#29323C" />
	<path d="M48.5442 38.5748C48.5442 40.8423 49.0622 42.5219 50.0551 43.5717C51.0912 44.6215 52.3862 45.1254 54.0266 45.1254C54.89 45.1254 55.7102 44.9994 56.4872 44.7894C57.2642 44.5375 57.9118 44.2856 58.3866 43.9496V31.9403C57.9981 31.8563 57.5232 31.7723 56.9189 31.7303C56.3577 31.6463 55.6238 31.6043 54.7173 31.6043C52.7316 31.6043 51.1775 32.2342 50.0983 33.5359C49.1054 34.7956 48.5442 36.4753 48.5442 38.5748ZM63.9122 48.4007C63.9122 52.0958 62.9625 54.7832 60.9767 56.5049C59.0773 58.2265 56.0987 59.0663 52.1272 59.0663C50.6595 59.0663 49.2349 58.9403 47.8535 58.7304C46.4721 58.4784 45.2634 58.1845 44.141 57.8066L45.1339 53.2716C46.0836 53.6495 47.1197 53.9434 48.3284 54.1954C49.5371 54.4473 50.8322 54.5313 52.2567 54.5313C54.4583 54.5313 56.0555 54.0694 57.0052 53.1876C57.9549 52.3058 58.4298 51.0041 58.4298 49.2405V48.3587C57.8686 48.6106 57.1347 48.9045 56.2282 49.1565C55.3648 49.4084 54.3288 49.5344 53.1632 49.5344C51.6523 49.5344 50.2278 49.2825 48.9759 48.8206C47.724 48.3587 46.6448 47.6448 45.7383 46.763C44.8749 45.8392 44.141 44.7055 43.623 43.3618C43.1482 41.9761 42.8892 40.3804 42.8892 38.5748C42.8892 36.8952 43.1482 35.3415 43.6662 33.9138C44.2274 32.4861 45.0044 31.3104 45.9973 30.3026C47.0333 29.2948 48.2852 28.539 49.7098 27.9511C51.1775 27.4053 52.8179 27.1113 54.6741 27.1113C56.444 27.1113 58.1708 27.2373 59.768 27.4892C61.3652 27.7412 62.7466 28.0351 63.869 28.3291V48.4007H63.9122Z" fill="#29323C" />
	<path d="M75.9243 50.6583H70.4396V27.2273H75.9243V50.6583ZM76.5242 20.3809C76.5242 21.4015 76.1814 22.2095 75.5387 22.8048C74.896 23.4001 74.0818 23.6978 73.182 23.6978C72.2393 23.6978 71.468 23.4001 70.7824 22.8048C70.1397 22.2095 69.7969 21.4015 69.7969 20.3809C69.7969 19.3178 70.1397 18.5098 70.7824 17.9145C71.4252 17.3192 72.2393 17.0215 73.182 17.0215C74.0818 17.0215 74.8531 17.3192 75.5387 17.9145C76.2243 18.5098 76.5242 19.3178 76.5242 20.3809Z" fill="#29323C" />
	<path d="M82.4072 21.283L88.0069 20.3867V27.4717H96.5814V31.9958H88.0069V41.5562C88.0069 43.4342 88.3131 44.8 88.9256 45.6109C89.538 46.4218 90.588 46.8059 92.0754 46.8059C93.0816 46.8059 94.0003 46.7206 94.744 46.5072C95.5314 46.2938 96.1876 46.123 96.6251 45.9096L97.5438 50.2204C96.8876 50.4765 96.0564 50.7752 95.0065 51.0313C93.9565 51.3301 92.7316 51.5008 91.3317 51.5008C89.6255 51.5008 88.1819 51.2874 87.0007 50.8179C85.8633 50.3484 84.9446 49.7082 84.2884 48.8973C83.6322 48.0437 83.1509 46.9767 82.8447 45.7816C82.5822 44.5439 82.451 43.1781 82.451 41.5989V21.283H82.4072Z" fill="#29323C" />
	<path d="M109.713 47.2569C111.327 47.2569 112.569 47.172 113.438 47.0024V41.0224C113.148 40.9375 112.734 40.8527 112.155 40.7679C111.617 40.6831 110.996 40.6406 110.334 40.6406C109.755 40.6406 109.175 40.6831 108.554 40.7679C107.975 40.8527 107.437 41.0224 106.94 41.2768C106.485 41.5313 106.112 41.8706 105.823 42.2947C105.533 42.7188 105.367 43.2278 105.367 43.9063C105.367 45.1787 105.781 46.0693 106.526 46.5783C107.313 47.0448 108.347 47.2569 109.713 47.2569ZM109.258 27.1113C110.996 27.1113 112.486 27.3234 113.686 27.7899C114.887 28.2564 115.838 28.8502 116.542 29.656C117.287 30.4618 117.784 31.4373 118.073 32.5824C118.405 33.7275 118.57 34.9575 118.57 36.3147V50.4802C117.742 50.6498 116.501 50.8619 114.845 51.1163C113.231 51.3708 111.369 51.498 109.299 51.498C107.933 51.498 106.692 51.3708 105.533 51.1163C104.416 50.8619 103.422 50.4377 102.594 49.8016C101.808 49.2078 101.187 48.4444 100.732 47.4689C100.277 46.5359 100.07 45.3483 100.07 43.9488C100.07 42.5916 100.318 41.4889 100.815 40.5558C101.353 39.6228 102.056 38.9018 102.926 38.308C103.795 37.7142 104.788 37.2901 105.947 37.0781C107.106 36.8236 108.306 36.6964 109.589 36.6964C110.168 36.6964 110.789 36.7388 111.41 36.8236C112.031 36.866 112.734 36.9932 113.479 37.1629V36.2722C113.479 35.6361 113.397 35.0423 113.272 34.491C113.107 33.9396 112.859 33.4307 112.486 33.0065C112.155 32.54 111.658 32.2007 111.038 31.9887C110.458 31.7342 109.713 31.6494 108.803 31.6494C107.561 31.6494 106.444 31.7342 105.45 31.9038C104.416 32.0735 103.588 32.2856 102.967 32.54L102.305 28.1716C102.967 27.9171 103.96 27.7051 105.243 27.4506C106.444 27.2386 107.809 27.1113 109.258 27.1113Z" fill="#29323C" />
	<path d="M133.762 51.4984C132.104 51.4556 130.708 51.2848 129.617 50.9432C128.526 50.6015 127.697 50.1317 127.043 49.5338C126.388 48.8932 125.952 48.1245 125.646 47.2277C125.385 46.2881 125.297 45.2631 125.297 44.0673V17.0765L130.882 16.1797V43.1278C130.882 43.7684 130.926 44.3236 131.013 44.7934C131.144 45.2631 131.319 45.6475 131.624 45.9464C131.886 46.2454 132.279 46.5016 132.715 46.6725C133.195 46.8433 133.806 46.9287 134.547 47.0141L133.762 51.4984Z" fill="#29323C" />
	<path d="M169.028 20.3867H174.915V50.6599H169.028V20.3867Z" fill="#0075EB" />
	<path d="M187.447 46.4815C187.793 46.5244 188.227 46.5244 188.79 46.5673C189.353 46.5673 190.09 46.5673 191.043 46.5673C194.9 46.5673 197.803 45.6236 199.666 43.6934C201.573 41.7204 202.526 39.0182 202.526 35.501C202.526 31.9409 201.616 29.2386 199.753 27.3085C197.89 25.4212 195.03 24.4776 191.13 24.4776C189.44 24.4776 188.183 24.5205 187.49 24.6062V46.4815H187.447ZM208.55 35.501C208.55 38.2032 208.116 40.5623 207.25 42.5782C206.383 44.5513 205.17 46.2241 203.61 47.5967C202.05 48.9263 200.186 49.9129 197.933 50.5563C195.723 51.1997 193.297 51.4999 190.61 51.4999C189.31 51.4999 187.88 51.457 186.277 51.3283C184.673 51.2425 183.113 51.0281 181.64 50.6849V20.317C183.113 19.9738 184.673 19.7594 186.32 19.6736C187.967 19.5878 189.44 19.5449 190.697 19.5449C193.34 19.5449 195.767 19.8452 197.976 20.4886C200.186 21.0891 202.05 22.0756 203.61 23.3624C205.213 24.6491 206.426 26.322 207.25 28.3379C208.116 30.3539 208.55 32.7129 208.55 35.501Z" fill="#0075EB" />
</svg>
