<svg xmlns="http://www.w3.org/2000/svg" width="265" height="51" viewBox="0 0 265 51" fill="none">
	<path d="M103.173 10.8418C94.5715 10.8418 86.7725 18.0293 86.7725 26.6584C86.7725 33.2571 91.4141 38.2214 98.159 38.2214C106.823 38.2214 114.623 31.1151 114.623 22.4048C114.623 15.8162 109.981 10.8418 103.173 10.8418ZM99.0873 32.9932C95.1904 32.9932 92.4631 29.9476 92.4631 25.9224C92.4631 20.5927 97.1835 16.1005 102.182 16.1005C106.147 16.1005 108.806 19.146 108.806 23.2068C108.869 28.5771 104.164 32.9932 99.0873 32.9932Z" fill="#4CBE42" />
	<path d="M125.209 18.9278C125.209 17.0751 127.123 15.8162 129.929 15.8162C132.835 15.8162 135.562 17.1918 137.477 18.5115L140.944 13.9432C138.173 11.9023 134.769 10.8289 131.288 10.8976C124.852 10.8976 119.403 14.6741 119.403 20.2424C119.403 28.2726 132.898 25.5163 132.898 29.8867C132.898 31.8054 130.916 33.2419 127.653 33.2419C124.533 33.1847 121.523 32.1118 119.109 30.1964L115.643 34.6327C118.731 37.0713 122.614 38.3668 126.599 38.2874C133.47 38.2874 138.73 34.2723 138.73 28.8817C138.699 20.6688 125.209 23.0647 125.209 18.9278Z" fill="#4CBE42" />
	<path d="M182.152 0L164.32 29.1156L157.087 0H149.781L142.911 37.7396H148.853L153.621 11.3447L160.365 37.7396H165.007L181.266 11.3447L176.441 37.7396H182.383L189.275 0H182.152Z" fill="#4CBE42" />
	<path d="M214.032 11.381L213.596 13.7769C212.625 12.8171 211.459 12.0613 210.172 11.5566C208.886 11.0518 207.505 10.8089 206.117 10.843C198.691 10.843 190.383 17.5534 190.383 26.6596C190.383 33.37 195.213 38.2226 201.093 38.2226C204.227 38.2483 207.271 37.2082 209.694 35.2836L209.264 37.6795H214.897L219.722 11.3252H214.032V11.381ZM210.748 29.3549C209.756 30.4659 208.531 31.3607 207.155 31.9801C205.779 32.5996 204.283 32.9297 202.766 32.9487C198.864 32.9487 196.079 29.8321 196.079 25.7612C196.079 20.4264 200.909 16.056 205.797 16.056C209.637 16.056 211.614 18.0864 212.485 19.7107L210.748 29.3549Z" fill="#4CBE42" />
	<path d="M238.736 10.842C236.143 10.8362 233.636 11.7376 231.676 13.38L231.986 11.4003H226.353L221.527 37.7597H227.218L230.685 18.7706C232.55 17.1721 234.944 16.2719 237.435 16.2326C238.356 16.267 239.27 16.4085 240.157 16.6539L242.386 11.578C241.237 11.0846 239.993 10.8337 238.736 10.842Z" fill="#4CBE42" />
	<path d="M255.42 16.5947H263.623L264.615 11.3817H256.433L257.671 4.37695H252.038L250.737 11.3817H244.857L243.882 16.5947H249.808L247.642 28.3354C246.53 34.3859 249.688 38.2842 256.123 38.2842C258.493 38.2588 260.839 37.8328 263.057 37.0254L262.312 32.051C260.8 32.5991 259.206 32.9026 257.592 32.9494C254.125 32.9494 252.824 30.9749 253.396 27.8735L255.42 16.5947Z" fill="#4CBE42" />
	<path d="M67.9548 0H56.1224L54.1399 11.0249H60.0823L61.0735 5.51247H67.2624C73.8237 5.51247 78.093 10.0808 78.093 16.4765C78.093 25.2782 70.7922 32.2119 62.3585 32.2119H41.5838L47.5261 0H26.421L25.4297 5.51247H40.5191L34.5767 37.7396H61.2047C73.4618 37.7396 84.2347 27.9786 84.2347 15.7557C84.1088 6.64948 77.6734 0 67.9548 0Z" fill="#4CBE42" />
	<path d="M19.6838 10.0801L18.6926 13.6332H0L0.991273 10.0801H19.6838Z" fill="#4CBE42" />
	<path d="M24.556 18.1836L23.5699 21.7774H4.93506L5.86339 18.1836H24.556Z" fill="#4CBE42" />
	<path d="M29.4656 26.3125L28.5373 29.9063H9.84473L10.8308 26.3125H29.4656Z" fill="#4CBE42" />
	<path d="M65.3461 49.7462C67.25 48.1219 67.6014 45.4976 66.1329 43.8885C64.6643 42.2795 61.937 42.2896 60.0226 43.8885C58.1083 45.4875 57.7726 48.1726 59.2674 49.7868C60.7622 51.4009 63.4632 51.3806 65.3461 49.7462Z" fill="#4CBE42" />
	<path d="M44.7577 49.7748C46.6563 48.1454 47.0077 45.5262 45.5392 43.9121C44.0706 42.2979 41.3433 42.3132 39.4342 43.9425C37.5251 45.5719 37.1789 48.1911 38.6527 49.8002C40.1265 51.4093 42.8538 51.3991 44.7577 49.7748Z" fill="#4CBE42" />
</svg>
