<svg xmlns="http://www.w3.org/2000/svg" width="324" height="64" viewBox="0 0 324 64" fill="none">
	<path d="M6.79942 10.0195C1.1543 10.0195 -2.02654 16.5123 1.44267 20.9778L32.8492 61.3762C35.5668 64.8716 40.8536 64.8716 43.5714 61.3762L74.9778 20.9778C78.447 16.5211 75.2662 10.0195 69.621 10.0195H6.79942Z" fill="#FFCD00" />
	<path d="M6.40637 27.3556C10.094 13.3477 22.9136 2.99248 38.2148 2.99248C53.5072 2.99248 66.3268 13.3477 70.0232 27.3556L72.2866 24.4458C67.5502 10.2717 54.084 0.00390625 38.2148 0.00390625C22.3456 0.00390625 8.87939 10.2717 4.14307 24.4458L6.40637 27.3556Z" fill="#1D1D1B" />
	<path d="M32.8492 61.3659C35.5668 64.8613 40.8536 64.8613 43.5714 61.3659L70.0144 27.3553C66.3266 13.3474 53.5072 2.99219 38.206 2.99219C22.9134 2.99219 10.0939 13.3474 6.39746 27.3553L32.8492 61.3659Z" fill="#FFED00" />
	<path d="M48.8669 28.3516V33.2452H41.1071V50.2068H35.3135V33.2452H27.5537V28.3516H48.8669Z" fill="#1D1D1B" />
	<path d="M48.8666 20.9922H27.5444V25.8858H48.8666V20.9922Z" fill="#1D1D1B" />
	<path d="M9.56068 31.4103C11.623 17.5596 23.6648 6.88105 38.2144 6.88105C52.7642 6.88105 64.806 17.5596 66.8682 31.4103L68.5374 29.2605C65.5924 15.34 53.14 4.88867 38.2144 4.88867C23.289 4.88867 10.8365 15.34 7.8916 29.2605L9.56068 31.4103Z" fill="#1D1D1B" />
	<path d="M90.5241 21.9928C90.6727 21.8442 90.8825 21.7656 91.1359 21.7656H93.6525C93.9147 21.7656 94.1157 21.8442 94.2643 21.9928C94.4129 22.1414 94.4915 22.351 94.4915 22.6046V34.052L99.3239 28.0748C99.5685 27.7602 99.9007 27.603 100.329 27.603H103.457C103.702 27.603 103.877 27.6466 103.999 27.7428C104.121 27.839 104.182 27.9612 104.182 28.1098C104.182 28.2584 104.095 28.4332 103.929 28.6428L98.6511 34.7598L104.261 41.8556C104.41 42.0652 104.48 42.2402 104.48 42.3886C104.48 42.5372 104.418 42.6596 104.287 42.7556C104.156 42.8518 103.981 42.8954 103.754 42.8954H100.652C100.224 42.8954 99.8745 42.7294 99.6211 42.3886L95.9857 37.862L94.4739 39.5924V42.0478C94.4739 42.31 94.4041 42.511 94.2467 42.6596C94.0983 42.8082 93.8973 42.8868 93.6351 42.8868H91.1183C90.8563 42.8868 90.6553 42.8168 90.5067 42.6596C90.3581 42.511 90.2881 42.31 90.2881 42.0478V22.6132C90.2969 22.3424 90.3755 22.1414 90.5241 21.9928Z" fill="#1D1D1B" />
	<path d="M118.985 42.6608C118.836 42.5122 118.758 42.3112 118.758 42.049V41.35C118.382 41.8568 117.761 42.2936 116.888 42.6608C116.014 43.0364 115.079 43.22 114.091 43.22C112.527 43.22 111.155 42.8704 109.984 42.1714C108.813 41.4722 107.913 40.5022 107.301 39.2526C106.69 38.038 106.375 36.6922 106.375 35.2066C106.375 33.695 106.69 32.3404 107.31 31.1258C107.93 29.9198 108.822 28.9586 109.975 28.2508C111.129 27.543 112.501 27.1934 114.082 27.1934C115.105 27.1934 116.031 27.3682 116.844 27.7264C117.665 28.076 118.294 28.548 118.74 29.1246V28.3732C118.74 28.111 118.81 27.91 118.967 27.7614C119.116 27.6128 119.317 27.5342 119.579 27.5342H122.035C122.297 27.5342 122.498 27.6128 122.646 27.7614C122.795 27.91 122.873 28.111 122.873 28.3732V42.0578C122.873 42.32 122.804 42.521 122.646 42.6694C122.498 42.818 122.297 42.8966 122.035 42.8966H119.579C119.334 42.8792 119.133 42.8092 118.985 42.6608ZM117.761 32.0434C116.992 31.2394 115.97 30.8462 114.703 30.8462C113.418 30.8462 112.396 31.2482 111.627 32.0434C110.867 32.8472 110.482 33.8958 110.482 35.198C110.482 36.465 110.875 37.505 111.653 38.3088C112.431 39.1216 113.453 39.5236 114.694 39.5236C115.996 39.5236 117.027 39.139 117.779 38.3612C118.53 37.5924 118.906 36.535 118.906 35.1892C118.924 33.8958 118.539 32.8472 117.761 32.0434Z" fill="#1D1D1B" />
	<path d="M126.833 41.3394C126.588 41.1734 126.466 40.9636 126.466 40.7278C126.466 40.5442 126.536 40.352 126.667 40.1684L127.864 38.578C128.047 38.3334 128.266 38.211 128.511 38.211C128.694 38.211 128.86 38.2548 129.017 38.3508C129.69 38.7266 130.398 39.0236 131.158 39.2422C131.91 39.4694 132.635 39.5742 133.326 39.5742C133.955 39.5742 134.488 39.4432 134.907 39.181C135.327 38.9188 135.536 38.5954 135.536 38.2022C135.536 37.8528 135.344 37.5906 134.951 37.4158C134.558 37.2498 134.06 37.1186 133.439 37.0226L132.574 36.909C131.29 36.708 130.276 36.4632 129.533 36.1836C128.79 35.904 128.109 35.4584 127.497 34.8466C126.824 34.1738 126.492 33.2562 126.492 32.0852C126.492 30.3376 127.121 29.088 128.38 28.3452C129.638 27.6024 131.123 27.2266 132.836 27.2266C133.911 27.2266 134.916 27.3664 135.842 27.646C136.76 27.9258 137.66 28.3538 138.534 28.9306C138.796 29.0792 138.927 29.2802 138.927 29.5424C138.927 29.7084 138.857 29.9006 138.7 30.1016L137.529 31.6658C137.345 31.9104 137.127 32.024 136.882 32.024C136.699 32.024 136.524 31.9804 136.349 31.8842C135.065 31.194 133.85 30.8532 132.688 30.8532C132.181 30.8532 131.726 30.958 131.307 31.1764C130.888 31.395 130.678 31.6658 130.678 31.9978C130.678 32.4086 130.931 32.7058 131.447 32.8892C131.962 33.0728 132.67 33.23 133.588 33.361C135.073 33.6232 136.183 33.8766 136.9 34.13C137.616 34.3836 138.254 34.803 138.813 35.3972C139.408 36.0876 139.705 37.0226 139.705 38.2198C139.705 39.819 139.154 41.051 138.062 41.9162C136.961 42.7812 135.405 43.2182 133.396 43.2182C130.888 43.2444 128.712 42.6066 126.833 41.3394Z" fill="#1D1D1B" />
	<path d="M142.807 41.3394C142.563 41.1734 142.44 40.9636 142.44 40.7278C142.44 40.5442 142.51 40.352 142.641 40.1684L143.839 38.578C144.022 38.3334 144.241 38.211 144.485 38.211C144.669 38.211 144.835 38.2548 144.992 38.3508C145.665 38.7266 146.373 39.0236 147.133 39.2422C147.885 39.4694 148.61 39.5742 149.3 39.5742C149.929 39.5742 150.462 39.4432 150.882 39.181C151.301 38.9188 151.511 38.5954 151.511 38.2022C151.511 37.8528 151.319 37.5906 150.926 37.4158C150.532 37.2498 150.034 37.1186 149.414 37.0226L148.549 36.909C147.264 36.708 146.25 36.4632 145.508 36.1836C144.765 35.904 144.083 35.4584 143.472 34.8466C142.799 34.1738 142.467 33.2562 142.467 32.0852C142.467 30.3376 143.096 29.088 144.354 28.3452C145.613 27.6024 147.098 27.2266 148.811 27.2266C149.886 27.2266 150.891 27.3664 151.817 27.646C152.734 27.9258 153.635 28.3538 154.508 28.9306C154.771 29.0792 154.902 29.2802 154.902 29.5424C154.902 29.7084 154.832 29.9006 154.674 30.1016L153.503 31.6658C153.32 31.9104 153.102 32.024 152.857 32.024C152.673 32.024 152.499 31.9804 152.324 31.8842C151.039 31.194 149.824 30.8532 148.662 30.8532C148.155 30.8532 147.701 30.958 147.282 31.1764C146.862 31.395 146.652 31.6658 146.652 31.9978C146.652 32.4086 146.906 32.7058 147.421 32.8892C147.937 33.0728 148.645 33.23 149.562 33.361C151.048 33.6232 152.158 33.8766 152.874 34.13C153.591 34.3836 154.229 34.803 154.788 35.3972C155.382 36.0876 155.679 37.0226 155.679 38.2198C155.679 39.819 155.129 41.051 154.037 41.9162C152.935 42.7812 151.38 43.2182 149.37 43.2182C146.862 43.2444 144.686 42.6066 142.807 41.3394Z" fill="#1D1D1B" />
	<path d="M170.84 42.6608C170.692 42.5122 170.613 42.3112 170.613 42.049V41.35C170.237 41.8568 169.617 42.2936 168.743 42.6608C167.869 43.0364 166.934 43.22 165.947 43.22C164.382 43.22 163.01 42.8704 161.84 42.1714C160.669 41.4722 159.768 40.5022 159.157 39.2526C158.545 38.038 158.23 36.6922 158.23 35.2066C158.23 33.695 158.545 32.3404 159.166 31.1258C159.786 29.9198 160.677 28.9586 161.831 28.2508C162.984 27.543 164.356 27.1934 165.938 27.1934C166.96 27.1934 167.887 27.3682 168.699 27.7264C169.521 28.076 170.15 28.548 170.596 29.1246V28.3732C170.596 28.111 170.665 27.91 170.823 27.7614C170.971 27.6128 171.172 27.5342 171.434 27.5342H173.89C174.152 27.5342 174.353 27.6128 174.502 27.7614C174.65 27.91 174.729 28.111 174.729 28.3732V42.0578C174.729 42.32 174.659 42.521 174.502 42.6694C174.353 42.818 174.152 42.8966 173.89 42.8966H171.434C171.19 42.8792 170.989 42.8092 170.84 42.6608ZM169.626 32.0434C168.857 31.2394 167.834 30.8462 166.567 30.8462C165.283 30.8462 164.26 31.2482 163.491 32.0434C162.731 32.8472 162.346 33.8958 162.346 35.198C162.346 36.465 162.74 37.505 163.517 38.3088C164.295 39.1216 165.317 39.5236 166.558 39.5236C167.86 39.5236 168.892 39.139 169.643 38.3612C170.395 37.5924 170.77 36.535 170.77 35.1892C170.788 33.8958 170.395 32.8472 169.626 32.0434Z" fill="#1D1D1B" />
	<path d="M186.578 31.4843C186.665 31.5717 186.709 31.6941 186.709 31.8427V33.1011C186.709 33.2495 186.665 33.3719 186.578 33.4593C186.491 33.5467 186.368 33.5903 186.22 33.5903H178.565C178.416 33.5903 178.294 33.5467 178.207 33.4593C178.119 33.3719 178.075 33.2495 178.075 33.1011V31.5543C178.075 31.3183 178.163 31.1173 178.355 30.9687L179.937 29.6841L182.427 27.6831C183.048 27.1937 183.458 26.7743 183.677 26.4335C183.887 26.0839 183.992 25.6995 183.992 25.2625C183.992 24.7643 183.825 24.3887 183.493 24.1265C183.161 23.8643 182.742 23.7419 182.235 23.7419C181.457 23.7419 180.872 24.2227 180.496 25.1751C180.4 25.4111 180.251 25.5333 180.059 25.5333C180.024 25.5333 179.972 25.5247 179.876 25.4985L178.329 25.1227C178.075 25.0615 177.953 24.9217 177.953 24.7119C177.953 24.6245 177.962 24.5635 177.988 24.5197C178.18 24.0391 178.451 23.5935 178.792 23.1653C179.133 22.7371 179.552 22.3701 180.05 22.0641C180.68 21.6885 181.405 21.4961 182.235 21.4961C183.144 21.4961 183.93 21.6709 184.594 22.0291C185.259 22.3787 185.757 22.8593 186.089 23.4535C186.412 24.0215 186.578 24.6245 186.578 25.2625C186.578 26.0139 186.36 26.7219 185.914 27.4035C185.477 28.0851 184.822 28.7841 183.957 29.5095L183.292 30.0513L182.576 30.6017C182.244 30.8813 181.912 31.1435 181.597 31.3707H186.22C186.377 31.3533 186.491 31.3969 186.578 31.4843Z" fill="#1D1D1B" />
	<path d="M198.384 28.9053C198.472 28.9927 198.515 29.1151 198.515 29.2635V30.5131C198.515 30.6617 198.472 30.7841 198.384 30.8715C198.297 30.9589 198.174 31.0025 198.026 31.0025H197.03V33.0911C197.03 33.2397 196.986 33.3619 196.899 33.4493C196.811 33.5367 196.689 33.5805 196.54 33.5805H194.941C194.793 33.5805 194.67 33.5367 194.583 33.4493C194.496 33.3619 194.452 33.2397 194.452 33.0911V31.0025H189.13C188.981 31.0025 188.859 30.9589 188.772 30.8715C188.684 30.7841 188.641 30.6617 188.641 30.5131V29.2635C188.641 29.0451 188.719 28.8441 188.868 28.6605L194.845 21.9319C194.994 21.7483 195.195 21.6523 195.448 21.6523H196.54C196.689 21.6523 196.811 21.6959 196.899 21.7833C196.986 21.8707 197.03 21.9931 197.03 22.1415V28.7655H198.026C198.174 28.7741 198.297 28.8179 198.384 28.9053ZM192.005 28.7743H194.461V25.8905L192.005 28.7743Z" fill="#1D1D1B" />
	<path d="M218.588 29.6486C219.908 31.0382 220.572 32.882 220.572 35.2152C220.572 37.5396 219.908 39.3922 218.588 40.7642C217.268 42.136 215.66 42.8352 213.79 42.8352C211.71 42.8352 210.006 41.8828 208.688 39.969L208.416 41.97C208.32 42.3284 208.146 42.5032 207.884 42.5032H205.314C204.964 42.5032 204.782 42.3284 204.782 41.97V22.8064C204.782 22.4568 204.956 22.2734 205.314 22.2734H208.216C208.566 22.2734 208.748 22.448 208.748 22.8064V30.1904C210.216 28.4602 211.946 27.5952 213.93 27.5952C215.704 27.5864 217.268 28.2768 218.588 29.6486ZM215.442 38.396C216.194 37.6358 216.57 36.5696 216.57 35.2152C216.57 33.8694 216.186 32.812 215.442 32.043C214.69 31.2828 213.756 30.8984 212.638 30.8984C211.51 30.8984 210.54 31.2916 209.77 32.0692C208.994 32.847 208.6 33.9218 208.6 35.2938C208.6 36.6658 208.984 37.7318 209.754 38.4484C210.532 39.165 211.466 39.532 212.584 39.532C213.738 39.5408 214.69 39.1562 215.442 38.396Z" fill="#1D1D1B" />
	<path d="M237.096 27.9551C237.446 27.9551 237.63 28.1297 237.63 28.4881V41.9629C237.63 42.3213 237.454 42.4961 237.096 42.4961H234.282C233.986 42.4961 233.81 42.3213 233.75 41.9629L233.558 40.5473C232.186 42.0677 230.482 42.8281 228.48 42.8281C224.984 42.8281 223.106 40.3813 223.106 35.8635V28.4793C223.106 28.1297 223.28 27.9463 223.64 27.9463H226.672C227.03 27.9463 227.204 28.1211 227.204 28.4793V35.8635C227.204 37.9431 228.296 39.1667 230.158 39.1667C232.08 39.1667 233.408 37.8209 233.532 34.9895V28.4707C233.532 28.1211 233.706 27.9375 234.064 27.9375H237.096V27.9551Z" fill="#1D1D1B" />
	<path d="M242.942 42.1523C241.912 41.7591 241.09 41.2697 240.504 40.6581C240.26 40.4133 240.242 40.1687 240.452 39.9065L241.474 38.2637C241.65 37.9665 241.92 37.9229 242.26 38.1589C242.732 38.5783 243.362 38.9191 244.122 39.1813C244.882 39.4435 245.634 39.5745 246.376 39.5745C247.898 39.5745 248.77 39.0153 248.77 38.0365C248.77 37.3723 248.116 36.9355 247.53 36.7869C247.242 36.7169 246.752 36.6121 246.062 36.4899C244.296 36.1753 242.934 35.6859 241.998 35.0217C241.064 34.3575 240.582 33.3789 240.582 32.0855C240.582 30.6873 241.116 29.5951 242.164 28.8085C243.214 28.0221 244.628 27.6289 246.438 27.6289C248.412 27.6289 250.134 28.1619 251.62 29.2193C251.916 29.3941 251.96 29.6563 251.734 29.9709L250.702 31.5613C250.528 31.8233 250.266 31.8759 249.95 31.7273C248.954 31.0631 247.854 30.7223 246.63 30.7311C245.048 30.7311 244.262 31.1679 244.262 32.0331C244.262 32.6273 244.9 33.0293 245.528 33.1865C245.844 33.2653 246.28 33.3613 246.866 33.4749C246.988 33.4837 247.094 33.5187 247.164 33.5449C248.928 33.9119 250.248 34.4187 251.13 35.0567C252.012 35.6945 252.45 36.6733 252.45 37.9667C252.45 39.3911 251.916 40.5533 250.876 41.4359C249.82 42.3185 248.334 42.7553 246.412 42.7553C245.136 42.7379 243.974 42.5457 242.942 42.1523Z" fill="#1D1D1B" />
	<path d="M257.186 25.5311C256.532 25.5311 255.98 25.3039 255.518 24.8233C255.054 24.3603 254.828 23.8009 254.828 23.1543C254.828 22.5165 255.054 21.9571 255.518 21.4853C255.98 21.0133 256.54 20.7773 257.186 20.7773C257.824 20.7773 258.384 21.0045 258.856 21.4853C259.318 21.9571 259.546 22.5165 259.546 23.1543C259.546 23.8097 259.318 24.3603 258.856 24.8233C258.384 25.2953 257.824 25.5311 257.186 25.5311ZM255.648 42.4927C255.3 42.4927 255.116 42.318 255.116 41.9598V28.4849C255.116 28.1353 255.29 27.9517 255.648 27.9517H258.68C259.03 27.9517 259.214 28.1265 259.214 28.4849V41.9598C259.214 42.318 259.04 42.4927 258.68 42.4927H255.648Z" fill="#1D1D1B" />
	<path d="M275.992 29.4207C277.014 30.6267 277.53 32.3481 277.53 34.5503V41.9605C277.53 42.3187 277.356 42.4937 276.996 42.4937H273.964C273.606 42.4937 273.432 42.3187 273.432 41.9605V34.5503C273.432 32.4705 272.374 31.2733 270.504 31.2733C268.494 31.2733 267.13 32.5927 267.026 35.4241V41.9693C267.026 42.3275 266.852 42.5023 266.494 42.5023H263.46C263.112 42.5023 262.928 42.3275 262.928 41.9693V28.4943C262.928 28.1449 263.102 27.9613 263.46 27.9613H266.3C266.562 27.9613 266.738 28.1361 266.834 28.4943L267 29.8839C268.32 28.3721 269.936 27.6293 271.858 27.6293C273.588 27.6119 274.96 28.2061 275.992 29.4207Z" fill="#1D1D1B" />
	<path d="M292.438 29.6822C293.766 31.0804 294.44 32.9068 294.44 35.1614C294.44 35.4148 294.422 35.6246 294.412 35.7732C294.36 36.114 294.168 36.28 293.828 36.28H283.752C284.118 38.6044 285.544 39.758 288.034 39.758C289.624 39.758 290.934 39.1288 291.94 37.8966C292.202 37.6344 292.456 37.6256 292.692 37.8704L293.984 39.12C294.23 39.4084 294.204 39.688 293.906 39.9938C292.342 41.8726 290.288 42.8076 287.72 42.8076C285.438 42.8076 283.586 42.0998 282.152 40.7016C280.728 39.3036 280.002 37.4946 280.002 35.2926C280.002 33.134 280.668 31.3078 282.004 29.8222C283.332 28.3366 285.106 27.5938 287.29 27.5938C289.38 27.585 291.092 28.2754 292.438 29.6822ZM283.69 33.7982H290.952C290.698 31.7184 289.388 30.5998 287.414 30.5998C285.404 30.5998 283.978 31.7446 283.69 33.7982Z" fill="#1D1D1B" />
	<path d="M298.826 42.1523C297.794 41.7591 296.974 41.2697 296.388 40.6581C296.142 40.4133 296.126 40.1687 296.336 39.9065L297.358 38.2637C297.532 37.9665 297.804 37.9229 298.144 38.1589C298.616 38.5783 299.246 38.9191 300.006 39.1813C300.766 39.4435 301.518 39.5745 302.26 39.5745C303.78 39.5745 304.654 39.0153 304.654 38.0365C304.654 37.3723 303.998 36.9355 303.414 36.7869C303.124 36.7169 302.636 36.6121 301.946 36.4899C300.18 36.1753 298.816 35.6859 297.882 35.0217C296.946 34.3575 296.466 33.3789 296.466 32.0855C296.466 30.6873 297 29.5951 298.048 28.8085C299.096 28.0221 300.512 27.6289 302.322 27.6289C304.296 27.6289 306.018 28.1619 307.504 29.2193C307.8 29.3941 307.844 29.6563 307.616 29.9709L306.586 31.5613C306.41 31.8233 306.148 31.8759 305.834 31.7273C304.838 31.0631 303.736 30.7223 302.514 30.7311C300.932 30.7311 300.146 31.1679 300.146 32.0331C300.146 32.6273 300.784 33.0293 301.412 33.1865C301.726 33.2653 302.164 33.3613 302.75 33.4749C302.872 33.4837 302.976 33.5187 303.046 33.5449C304.812 33.9119 306.132 34.4187 307.014 35.0567C307.896 35.6945 308.334 36.6733 308.334 37.9667C308.334 39.3911 307.8 40.5533 306.76 41.4359C305.702 42.3185 304.218 42.7553 302.294 42.7553C301.018 42.7379 299.866 42.5457 298.826 42.1523Z" fill="#1D1D1B" />
	<path d="M312.606 42.1523C311.576 41.7591 310.754 41.2697 310.168 40.6581C309.924 40.4133 309.906 40.1687 310.116 39.9065L311.138 38.2637C311.314 37.9665 311.584 37.9229 311.924 38.1589C312.396 38.5783 313.026 38.9191 313.786 39.1813C314.546 39.4435 315.298 39.5745 316.04 39.5745C317.562 39.5745 318.436 39.0153 318.436 38.0365C318.436 37.3723 317.78 36.9355 317.194 36.7869C316.906 36.7169 316.416 36.6121 315.726 36.4899C313.96 36.1753 312.598 35.6859 311.662 35.0217C310.728 34.3575 310.246 33.3789 310.246 32.0855C310.246 30.6873 310.78 29.5951 311.828 28.8085C312.878 28.0221 314.292 27.6289 316.102 27.6289C318.076 27.6289 319.798 28.1619 321.284 29.2193C321.58 29.3941 321.624 29.6563 321.398 29.9709L320.366 31.5613C320.192 31.8233 319.93 31.8759 319.614 31.7273C318.618 31.0631 317.518 30.7223 316.294 30.7311C314.712 30.7311 313.926 31.1679 313.926 32.0331C313.926 32.6273 314.564 33.0293 315.194 33.1865C315.508 33.2653 315.944 33.3613 316.53 33.4749C316.652 33.4837 316.758 33.5187 316.828 33.5449C318.592 33.9119 319.912 34.4187 320.794 35.0567C321.678 35.6945 322.114 36.6733 322.114 37.9667C322.114 39.3911 321.58 40.5533 320.542 41.4359C319.484 42.3185 317.998 42.7553 316.076 42.7553C314.8 42.7379 313.638 42.5457 312.606 42.1523Z" fill="#1D1D1B" />
</svg>
