<svg xmlns="http://www.w3.org/2000/svg" width="196" height="35" viewBox="0 0 196 35" fill="none">
	<path d="M141.816 8.55859H135.518V10.8986H138.781V24.5693H135.518V26.9004H145.088V24.5693H141.816V8.55859Z" fill="#222222" />
	<path d="M139.396 0C138.099 0 137.23 0.870903 137.23 2.04971C137.23 3.22852 138.099 4.09943 139.396 4.09943C140.731 4.09943 141.636 3.22852 141.636 2.04971C141.645 0.870903 140.74 0 139.396 0Z" fill="#222222" />
	<path d="M106.869 8.55859H100.572V10.8986H103.835V24.5692H100.572V26.9005H110.132V24.5692H106.869V8.55859Z" fill="#222222" />
	<path d="M104.445 0C103.147 0 102.279 0.870903 102.279 2.04971C102.279 3.22852 103.147 4.09943 104.445 4.09943C105.78 4.09943 106.684 3.22852 106.684 2.04971C106.694 0.870903 105.789 0 104.445 0Z" fill="#222222" />
	<path d="M84.6367 24.4629H80.4689V5.39091H84.6002C88.0369 5.39091 92.159 6.43778 92.159 14.7862C92.15 22.7298 88.2106 24.4629 84.6367 24.4629ZM83.8416 2.92773H77.3246V26.9084H84.2438C89.4171 26.9084 95.5228 24.8588 95.5228 14.795C95.5135 4.83671 89.6913 2.92773 83.8416 2.92773Z" fill="#222222" />
	<path d="M60.5319 20.2602C60.5319 15.7034 57.1316 14.1375 53.2288 13.0554C48.4941 11.7359 46.9769 10.689 46.9769 8.63932C46.9769 6.23772 49.2162 5.08531 51.9675 5.08531C54.0606 5.08531 56.1629 5.7451 57.936 7.2406L59.8188 5.29645C57.7258 3.55462 55.2671 2.54297 51.8668 2.54297C47.0956 2.54297 43.8054 5.1205 43.8054 8.73609C43.8054 12.5276 46.8764 14.2694 51.8303 15.6594C56.0989 16.8382 57.2504 17.9906 57.2504 20.3218C57.2504 23.3481 54.4992 24.7731 51.4647 24.7731C48.4301 24.7731 46.2913 23.7614 44.5547 22.1955L42.6719 24.2453C44.7649 26.1983 47.772 27.2715 51.4189 27.2715C57.2049 27.2891 60.5319 24.3949 60.5319 20.2602Z" fill="#222222" />
	<path d="M31.7868 5.53167H39.3094L39.6383 2.92773H20.8735V5.53167H28.6427V26.8998H31.7868V5.53167Z" fill="#222222" />
	<path d="M8.47296 24.3926H3.14422V15.6219H8.58266C11.5075 15.6219 13.9388 16.528 13.9388 20.1788C13.9297 23.7329 10.8951 24.3926 8.47296 24.3926ZM3.14422 5.39091H8.0708C11.0688 5.39091 12.9517 6.40259 12.9517 9.14727C12.9517 11.9271 11.2881 13.1147 8.36328 13.1147H3.14422V5.39091ZM11.5075 14.1968C13.8931 13.6777 16.169 12.0767 16.169 8.98012C16.169 4.28249 11.7177 2.92773 7.34871 2.92773H0L0 26.9084H7.9337C12.4855 26.9084 17.2658 25.3074 17.2658 20.0908C17.2567 16.009 14.2953 14.6542 11.5075 14.1968Z" fill="#222222" />
	<path d="M116.432 14.5497C116.432 12.0778 117.803 10.3359 120.883 10.3359C123.699 10.3359 125.115 11.7611 125.115 14.5146C125.115 17.2328 123.671 18.8339 120.956 18.8339C117.849 18.8251 116.432 17.0569 116.432 14.5497ZM123.232 23.7337H119.796C117.84 23.7337 117.264 23.0388 117.264 22.1681C117.264 21.5082 117.693 20.8132 118.242 20.391C119.074 20.6725 119.832 20.778 121.103 20.778C125.618 20.778 128.259 18.1653 128.259 14.5497C128.259 13.2214 127.885 12.0426 127.217 11.0661C127.409 10.9957 127.72 10.9253 128.205 10.9253H129.649V8.60294H128.205C126.898 8.60294 126.02 8.94601 125.463 9.39467C124.265 8.6381 122.73 8.18945 120.911 8.18945C116.423 8.18945 113.315 10.8374 113.315 14.5585C113.315 16.9249 114.33 18.526 116.496 19.608C115.125 20.4789 114.403 21.6578 114.403 22.8101C114.403 24.6576 115.884 26.2938 119.211 26.2938H122.611C125.033 26.2938 126.879 27.1648 126.879 28.9065C126.879 30.8859 125.033 31.9327 120.874 31.9327V34.2991C126.66 34.2991 129.95 32.3197 129.95 28.7307C129.96 25.8627 127.062 23.7337 123.232 23.7337Z" fill="#222222" />
	<path d="M138.964 8.56836H135.518V10.8732H138.964V8.56836Z" fill="#222222" />
	<path d="M161.792 23.981C160.778 24.4999 159.553 24.8518 158.136 24.8518C155.531 24.8518 154.48 23.7699 154.48 21.7554V10.8646H161.902L162.295 8.56852H154.471V4.08203L151.436 4.43391V8.57732H147.99V10.8822H151.436V21.808C151.436 25.0103 153.749 27.3062 157.834 27.3062C159.644 27.3062 161.627 26.8225 162.971 25.9867L161.792 23.981Z" fill="#222222" />
	<path d="M179.123 22.4681C177.999 24.1042 176.198 25.0808 174.315 25.0808C171.82 25.0808 170.659 23.9019 170.659 21.5972C170.659 19.2308 172.177 17.7705 176.372 17.7705H179.123V22.4681ZM182.203 22.8816V14.0757C182.203 10.4601 179.818 8.16406 175.083 8.16406C173.2 8.16406 171.18 8.51594 168.831 9.31648L169.663 11.5421C171.619 10.8824 173.347 10.6009 174.617 10.6009C177.432 10.6009 179.132 11.5773 179.132 14.2516V15.7471H176.308C170.559 15.7471 167.415 17.8672 167.415 21.6324C167.415 25.0457 169.727 27.2714 173.557 27.2714C176.016 27.2714 178.145 26.4004 179.525 24.6938C180.028 26.3653 181.372 27.0953 182.999 27.3065L183.757 25.2215C182.67 24.905 182.203 24.3419 182.203 22.8816Z" fill="#222222" />
	<path d="M183.752 1.1875V3.51873H189.611V26.9012H192.554H192.645H196V24.5701H192.645V1.1875H183.752Z" fill="#222222" />
	<path d="M71.2183 15.8605C71.2183 17.0921 70.1488 18.0861 68.8235 18.0861C67.4981 18.0861 66.4288 17.0833 66.4288 15.8605C66.4288 14.6289 67.4981 13.6348 68.8235 13.6348C70.1488 13.626 71.2183 14.6289 71.2183 15.8605Z" fill="#222222" />
</svg>
