<svg xmlns="http://www.w3.org/2000/svg" width="423" height="536" viewBox="0 0 423 536" fill="none">
	<path fill-rule="evenodd" clip-rule="evenodd" d="M356.96 205.898L180.026 0L173.088 0.935078L126.425 99.5561L40.6839 47.0657L34.3803 51.2638L62.7073 234.22L0 366.748L3.32043 372.683L65.2575 379.433L66.1618 371.135L10.0524 365.02L64.9841 248.924L74.5127 310.467L74.7513 311.351L126.911 444.43L129.283 446.796L346.799 531.479L352.486 527.662L357.968 208.69L356.96 205.898ZM69.0715 220.769L44.0073 58.8875L122.834 107.145L69.0715 220.769ZM129.994 111.529L71.3482 235.474L80.4947 294.549L158.562 129.018L129.994 111.529ZM133.585 103.94L177.885 10.315L349.595 210.134L344.243 521.527L134.015 439.681L83.2022 310.038L212.548 160.143L139.622 314.881L147.172 318.439L233.123 136.065L226.188 131.559L94.7621 283.865L167.708 129.193L166.113 123.853L133.585 103.94Z" fill="#F6F2F2" />
	<path fill-rule="evenodd" clip-rule="evenodd" d="M277.667 356.243L384.532 535.459L391.702 531.184L287.046 355.673L405.921 348.444L407.565 340.561L278.486 274.665L422.54 222.983L419.722 215.126L268.285 269.457L221.347 245.495L107.462 54.5059L99.7268 56.2053L86.3494 182.943L88.6022 187.098L215.41 251.835L233.383 281.978L2.60767 364.773L4.27039 372.867L277.667 356.243ZM272.855 348.173L32.9314 362.762L237.74 289.283L272.855 348.173ZM241.389 279.106L229.381 258.968L257.503 273.325L241.389 279.106ZM267.705 278.533L245.745 286.411L282.234 347.603L390.147 341.041L267.705 278.533ZM207.375 238.362L94.9514 180.968L106.712 69.5466L207.375 238.362Z" fill="#F6F2F2" />
	<path fill-rule="evenodd" clip-rule="evenodd" d="M377.39 26.4938L372.508 19.9824L135.463 125.576L107.426 55.2229L99.6714 58.3131L127.832 128.976L23.3447 175.521L22.6031 182.719L176.914 293.911L181.794 287.139L33.3731 180.191L130.925 136.736L177.277 253.043L184.337 254.197L377.39 26.4938ZM138.556 133.336L359.189 35.0532L182.461 243.503L138.556 133.336Z" fill="#F6F2F2" />
</svg>
