<svg xmlns="http://www.w3.org/2000/svg" width="199" height="56" viewBox="0 0 199 56" fill="none" class="c0160">
	<path d="M10.1376 28.1099C10.1376 23.3686 11.9837 18.9129 15.3342 15.5604C15.9614 14.9332 16.639 14.349 17.3464 13.8282C20.4133 11.5621 24.0569 10.3618 27.8815 10.3618C29.2815 10.3618 30.4164 11.4967 30.4164 12.8967C30.4164 14.2967 29.2815 15.4316 27.8815 15.4316C25.1488 15.4316 22.5487 16.2866 20.3573 17.9068C19.8514 18.2801 19.368 18.6964 18.92 19.1444C16.527 21.5393 15.2092 24.7219 15.2092 28.108L12.6734 28.109L10.1376 28.1099ZM10.1376 28.1099C10.1376 29.8197 10.3802 31.509 10.8562 33.1274C13.0626 40.622 20.0623 45.858 27.8797 45.858C32.6209 45.858 37.0765 44.0118 40.4251 40.6593C41.4144 39.6682 41.4144 38.0647 40.4233 37.0735C39.434 36.0823 37.8287 36.0842 36.8394 37.0754C34.4464 39.4684 31.2657 40.7881 27.8778 40.7881C22.2929 40.7881 17.2923 37.0493 15.7169 31.6957C15.3772 30.5421 15.2036 29.3344 15.2036 28.1118L12.6706 28.1108L10.1376 28.1099Z" fill="url(#paint0_linear)" />
	<path opacity="0.9882" d="M53.2283 55.9999C52.5806 55.9999 51.931 55.7516 51.4364 55.257L44.0129 47.8314C43.031 46.8477 43.0217 45.2573 43.9942 44.2643C54.6787 33.3556 51.4476 20.1099 43.9251 12.4193C36.3971 4.72312 23.2021 1.22129 12.0174 11.7156C10.9963 12.675 9.39292 12.6228 8.43535 11.6017C7.47778 10.5807 7.52817 8.97534 8.54921 8.01775C22.2221 -4.80984 38.3496 -0.529624 47.5501 8.87267C56.3231 17.84 60.3139 32.9935 49.3103 45.9573L55.0221 51.6711C56.0114 52.6605 56.0114 54.2658 55.0221 55.257C54.5256 55.7516 53.876 55.9999 53.2283 55.9999Z" fill="url(#paint1_linear)" />
	<path d="M53.2282 56.0003H27.8816C16.8798 56.0003 6.87853 49.5025 2.4024 39.4469C1.83309 38.1663 2.408 36.6693 3.68663 36.1C4.96525 35.5288 6.46414 36.1056 7.03345 37.3842C10.6957 45.6124 18.8789 50.9286 27.8816 50.9286H53.2282C54.6282 50.9286 55.7631 52.0635 55.7631 53.4635C55.7631 54.8654 54.6282 56.0003 53.2282 56.0003Z" fill="url(#paint2_linear)" />
	<path d="M12.5231 30.6451H2.53485C1.13489 30.6451 0 29.5102 0 28.1102C0 20.6586 2.9007 13.6568 8.16827 8.38911C8.2896 8.26778 8.4128 8.14644 8.53786 8.02884C9.55329 7.06379 11.1567 7.10486 12.1217 8.12031C13.0868 9.13577 13.0438 10.7411 12.0303 11.7043L11.754 11.9749C8.04881 15.6802 5.77341 20.4383 5.20969 25.5735H12.5249C13.9249 25.5735 15.0598 26.7084 15.0598 28.1084C15.0579 29.5102 13.923 30.6451 12.5231 30.6451Z" fill="url(#paint3_linear)" />
	<path d="M43.1523 30.6565H12.4578C11.0522 30.6565 9.91174 29.5179 9.91174 28.1104C9.91174 26.7048 11.0504 25.5643 12.4578 25.5643H40.3468C39.7196 22.5142 37.9799 19.7478 35.4357 17.8681C33.2369 16.2423 30.6255 15.3818 27.8797 15.3818C26.4741 15.3818 25.3337 14.2431 25.3337 12.8357C25.3337 11.4282 26.4723 10.2896 27.8797 10.2896C31.723 10.2896 35.3816 11.4935 38.4615 13.7727C42.9917 17.1177 45.6983 22.4788 45.6983 28.1086C45.6983 29.516 44.5578 30.6565 43.1523 30.6565Z" fill="#FF6700" />
	<g clip-path="url(#clip0)">
		<path d="M102.933 29.3526C102.891 26.4269 103.95 23.9057 106.108 21.7892C108.286 19.6727 110.859 18.6456 113.827 18.7079C116.794 18.6456 119.367 19.6727 121.546 21.7892C123.745 23.9057 124.824 26.4269 124.783 29.3526C124.824 32.2783 123.745 34.7995 121.546 36.916C119.367 39.0325 116.794 40.0596 113.827 39.9973C110.859 40.0596 108.286 39.0325 106.108 36.916C103.95 34.7995 102.891 32.2783 102.933 29.3526ZM120.456 29.3526C120.456 27.4021 119.823 25.794 118.558 24.5282C117.313 23.2417 115.746 22.5985 113.858 22.5985C111.949 22.5985 110.372 23.2314 109.127 24.4971C107.882 25.7629 107.259 27.3814 107.259 29.3526C107.259 31.3238 107.882 32.9423 109.127 34.2081C110.372 35.4738 111.949 36.1067 113.858 36.1067C115.746 36.1067 117.313 35.4738 118.558 34.2081C119.823 32.9423 120.456 31.3238 120.456 29.3526Z" fill="black" />
		<path d="M136.986 36.1067V39.6238C135.99 39.8728 135.025 39.9973 134.091 39.9973C132.12 39.9973 130.595 39.5097 129.516 38.5345C128.458 37.5592 127.928 36.1171 127.928 34.2081V27.7652H125.501V24.217H127.928V20.3264H132.13V24.217H136.488V27.7652H132.13V33.8346C132.13 34.7061 132.348 35.3286 132.784 35.7021C133.24 36.0548 133.977 36.2312 134.994 36.2312C135.347 36.2312 136.011 36.1897 136.986 36.1067Z" fill="black" />
		<path d="M139.064 39.6238V24.217H143.266V39.6238H139.064ZM138.472 18.6145C138.472 17.8675 138.732 17.245 139.251 16.747C139.769 16.249 140.402 16 141.149 16C141.896 16 142.529 16.249 143.048 16.747C143.587 17.245 143.857 17.8675 143.857 18.6145C143.857 19.3407 143.587 19.9529 143.048 20.4509C142.529 20.9489 141.896 21.1979 141.149 21.1979C140.402 21.1979 139.769 20.9489 139.251 20.4509C138.732 19.9529 138.472 19.3407 138.472 18.6145Z" fill="black" />
		<path d="M160.612 30.0685V39.6238H156.441V30.6287C156.441 29.7365 156.171 29.0206 155.632 28.4811C155.113 27.9209 154.428 27.6407 153.578 27.6407C152.727 27.6407 152.021 27.9209 151.461 28.4811C150.922 29.0206 150.652 29.7365 150.652 30.6287V39.6238H146.45V24.217H150.309V25.6176C151.471 24.4556 152.976 23.8746 154.823 23.8746C156.607 23.8746 158.018 24.4349 159.056 25.5554C160.093 26.6759 160.612 28.1802 160.612 30.0685Z" fill="black" />
		<path d="M163.684 39.6238V24.217H167.886V39.6238H163.684ZM163.093 18.6145C163.093 17.8675 163.352 17.245 163.871 16.747C164.39 16.249 165.023 16 165.77 16C166.517 16 167.149 16.249 167.668 16.747C168.208 17.245 168.477 17.8675 168.477 18.6145C168.477 19.3407 168.208 19.9529 167.668 20.4509C167.149 20.9489 166.517 21.1979 165.77 21.1979C165.023 21.1979 164.39 20.9489 163.871 20.4509C163.352 19.9529 163.093 19.3407 163.093 18.6145Z" fill="black" />
		<path d="M169.67 37.0093L171.786 34.4571C173.114 35.8473 174.556 36.5425 176.113 36.5425C176.694 36.5425 177.16 36.4387 177.513 36.2312C177.887 36.003 178.073 35.6813 178.073 35.2663C178.073 34.9551 177.959 34.7165 177.731 34.5505C177.524 34.3637 177.108 34.1355 176.486 33.8657L174.836 33.181C173.363 32.5792 172.295 31.9256 171.631 31.2201C170.967 30.4938 170.635 29.5808 170.635 28.4811C170.635 27.0494 171.153 25.9289 172.191 25.1196C173.228 24.2896 174.598 23.8746 176.299 23.8746C178.582 23.8746 180.428 24.6424 181.839 26.1779L179.723 28.7612C178.686 27.786 177.534 27.2984 176.268 27.2984C175.168 27.2984 174.619 27.6615 174.619 28.3877C174.619 28.6782 174.733 28.9169 174.961 29.1036C175.189 29.2903 175.615 29.5082 176.237 29.7572L177.731 30.3797C179.267 31.0022 180.366 31.6662 181.03 32.3717C181.715 33.0772 182.057 33.9798 182.057 35.0796C182.057 36.6151 181.487 37.8186 180.345 38.6901C179.225 39.5616 177.793 39.9973 176.05 39.9973C173.291 39.9973 171.164 39.0013 169.67 37.0093Z" fill="black" />
		<path d="M198.424 30.0685V39.6238H194.253V30.6598C194.253 29.7676 193.983 29.0517 193.444 28.5122C192.925 27.952 192.24 27.6719 191.389 27.6719C190.539 27.6719 189.833 27.952 189.273 28.5122C188.734 29.0517 188.464 29.7676 188.464 30.6598V39.6238H184.262V16.2801H188.464V25.5242C189.563 24.4245 190.975 23.8746 192.697 23.8746C194.44 23.8746 195.83 24.4452 196.867 25.5865C197.905 26.707 198.424 28.201 198.424 30.0685Z" fill="black" />
		<path d="M89.0345 31.2995H78.2341C78.4831 32.2747 78.9811 33.0321 79.7281 33.5716C80.4959 34.0904 81.44 34.3497 82.5605 34.3497C84.0752 34.3497 85.507 33.831 86.8557 32.7935L88.5987 35.657C86.752 37.1925 84.6977 37.9602 82.436 37.9602C80.0705 38.0017 78.0577 37.234 76.3977 35.657C74.7585 34.0592 73.9596 32.1399 74.0011 29.8989C73.9596 27.6786 74.7377 25.7696 76.3355 24.1719C77.9332 22.5741 79.8422 21.796 82.0625 21.8375C84.179 21.8375 85.9116 22.5223 87.2603 23.8918C88.6298 25.2613 89.3146 26.9628 89.3146 28.9963C89.3146 29.7432 89.2212 30.511 89.0345 31.2995ZM78.2341 28.3426H85.2372C85.2165 27.4089 84.8845 26.6619 84.2412 26.1016C83.6187 25.5206 82.8406 25.2301 81.9069 25.2301C81.0146 25.2301 80.2365 25.5103 79.5725 26.0705C78.9085 26.6308 78.4624 27.3881 78.2341 28.3426Z" fill="black" />
		<path d="M93.2052 30.5898C93.2052 29.7746 93.4882 29.083 94.0523 28.519C94.6163 27.9549 95.3179 27.6719 96.1551 27.6719C96.9702 27.6719 97.6499 27.9549 98.194 28.519C98.7581 29.083 99.0411 29.7746 99.0411 30.5898C99.0411 31.427 98.7701 32.1265 98.2259 32.6926C97.6818 33.2367 96.9922 33.5078 96.1551 33.5078C95.3179 33.5078 94.6183 33.2367 94.0523 32.6926C93.4882 32.1265 93.2052 31.427 93.2052 30.5898Z" fill="#FF6700" />
	</g>
	<defs>
		<linearGradient id="paint0_linear" x1="-3.07998" y1="27.9995" x2="28.1469" y2="28.0176" gradientUnits="userSpaceOnUse">
			<stop offset="0.0687547" stop-color="#231EE5" />
			<stop offset="0.520833" stop-color="#CE2651" />
			<stop offset="0.913611" stop-color="#FF6700" />
		</linearGradient>
		<linearGradient id="paint1_linear" x1="12.32" y1="7.69998" x2="53.3409" y2="53.899" gradientUnits="userSpaceOnUse">
			<stop stop-color="#4440DB" />
			<stop offset="0.510417" stop-color="#4440DB" />
			<stop offset="1" stop-color="#2A27AD" />
		</linearGradient>
		<linearGradient id="paint2_linear" x1="15.26" y1="52.2203" x2="-11.76" y2="17.3604" gradientUnits="userSpaceOnUse">
			<stop stop-color="#4440DB" />
			<stop offset="0.520468" stop-color="#CE2651" />
			<stop offset="1" stop-color="#FF6700" />
		</linearGradient>
		<linearGradient id="paint3_linear" x1="13.44" y1="9.23989" x2="7.5597" y2="26.4598" gradientUnits="userSpaceOnUse">
			<stop stop-color="#4440DB" />
			<stop offset="0.505208" stop-color="#CE2651" />
			<stop offset="0.967" stop-color="#FF6700" />
		</linearGradient>
		<clipPath id="clip0">
			<rect width="124.424" height="24" fill="black" transform="translate(73.9995 16)" />
		</clipPath>
	</defs>
</svg>
